<?xml version="1.0" encoding="utf-8"?>
<!-- Generator: Adobe Illustrator 15.0.0, SVG Export Plug-In . SVG Version: 6.00 Build 0)  -->
<!DOCTYPE svg PUBLIC "-//W3C//DTD SVG 1.1//EN" "http://www.w3.org/Graphics/SVG/1.1/DTD/svg11.dtd">
<svg version="1.1" id="Layer_1" xmlns="http://www.w3.org/2000/svg" xmlns:xlink="http://www.w3.org/1999/xlink" x="0px" y="0px"
	 width="194px" height="44px" viewBox="0 0 194 44" enable-background="new 0 0 194 44" xml:space="preserve">
<path opacity="0.6" fill="#30B459" d="M52.6,23c0,4.8-4.3,8.9-8.4,8.9c-2.4,0-3.3-0.5-4-0.5c-0.6,0-1.2,0.399-1.4,0.399
	c-0.1,0-0.8-0.1-0.8-0.399c0-0.301,0.4-1.7,0.4-4.801V11.3c0-0.6-0.1-1.6-0.2-2.4c-0.1-0.5-1.3-0.6-1.9-0.6H36
	c-0.1,0-0.2-0.1-0.2-0.4c0-0.1,0-0.6,0.2-0.6c4-0.4,5-1.4,5.2-1.4h0.1c0.2,0,0.4,0.4,0.5,0.6c0,0-0.4,1.2-0.4,3.2v6.5
	c0,0.2,0,0.6,0.2,0.4c0.6-0.4,2.3-1.2,3.5-1.2C50.2,15.4,52.6,19.9,52.6,23z M41.3,19.5v8.6c0,1.7,2,2.2,3.6,2.2
	c3,0,4.5-3.5,4.5-6.5c0-3.9-2.2-6.6-5.6-6.6C42.5,17.2,41.3,17.9,41.3,19.5z"/>
<path opacity="0.6" fill="#30B459" d="M71.5,23.7c0,4.5-3.5,8.3-8,8.3s-8.1-3.7-8.1-8.3c0-4.6,3.5-8.2,8.1-8.2
	C67.9,15.5,71.5,19.2,71.5,23.7z M58.6,23.1c0,4.101,2.5,7.4,5.3,7.4c2.7,0,4.5-3,4.5-6.3c0-4.1-2.5-7.3-5.3-7.3
	C60.3,16.9,58.6,19.8,58.6,23.1z"/>
<path opacity="0.6" fill="#30B459" d="M90.4,23.7c0,4.5-3.5,8.3-8,8.3s-8.1-3.7-8.1-8.3c0-4.6,3.5-8.2,8.1-8.2
	C86.8,15.5,90.4,19.2,90.4,23.7z M77.5,23.1c0,4.101,2.5,7.4,5.3,7.4c2.7,0,4.5-3,4.5-6.3c0-4.1-2.5-7.3-5.3-7.3
	S77.5,19.8,77.5,23.1z"/>
<path opacity="0.6" fill="#30B459" d="M100.7,22.5c2.8,3,5.7,6.5,6.6,7.2c1,0.8,2.7,1.1,3,1.1c0.101,0,0.101,0.3,0.101,0.601
	c0,0.199,0,0.3,0,0.399c-1.5-0.1-2.601-0.2-4-0.2c-1.5,0-2.301,0.101-3.9,0.2c-0.2-0.2-0.2-1,0-1c0.4,0,1.3-0.2,1.3-0.5v-0.1
	L98.4,24.3L98,24.4V26.6c0,1.2,0,2.301,0.3,3.301c0.101,0.399,1.9,0.699,2.2,0.699c0.2,0,0.2,0.9,0.1,1.101
	c-1.5-0.101-2.6-0.2-4-0.2c-1.5,0-2.5,0.1-4,0.2c-0.2-0.2-0.2-1.101,0-1.101c0.4,0,2.2-0.3,2.3-0.699c0.1-0.9,0.1-2,0.1-2.5V11.3
	c0-0.6-0.1-1.6-0.2-2.4c-0.1-0.5-1.3-0.6-1.9-0.6h-0.3c-0.1,0-0.2-0.1-0.2-0.4c0-0.1,0-0.6,0.2-0.6c4-0.4,5-1.4,5.2-1.4H97.9
	c0.199,0,0.399,0.4,0.5,0.6c0,0-0.4,1.2-0.4,3.2v13c0.3-0.101,0.6-0.101,0.9-0.3c3.3-2.9,4.6-3.6,4.6-4.3c0-0.7-1.5-0.4-1.7-0.7
	c-0.1-0.3-0.1-0.8,0-0.9h2.9c1.3,0,2.399-0.1,4.1-0.2c0.3,0.2,0.101,1,0,1c-0.6,0-2.2,0.4-2.6,0.6C105.8,18.2,102.7,20.4,100.7,22.5
	z"/>
<path fill="#30B459" d="M127.4,23c0,4.8-4.301,8.9-8.4,8.9c-2.4,0-3.3-0.5-4-0.5c-0.6,0-1.2,0.399-1.4,0.399
	c-0.1,0-0.8-0.1-0.8-0.399c0-0.301,0.4-1.7,0.4-4.801V11.3c0-0.6-0.101-1.6-0.2-2.4c-0.1-0.5-1.3-0.6-1.9-0.6h-0.3
	c-0.1,0-0.2-0.1-0.2-0.4c0-0.1,0-0.6,0.2-0.6c4-0.4,5-1.4,5.2-1.4h0.1c0.2,0,0.4,0.4,0.5,0.6c0,0-0.399,1.2-0.399,3.2v6.5
	c0,0.2,0,0.6,0.2,0.4c0.6-0.4,2.3-1.2,3.5-1.2C124.9,15.4,127.4,19.9,127.4,23z M116,19.5v8.6c0,1.7,2,2.2,3.6,2.2
	c3,0,4.5-3.5,4.5-6.5c0-3.9-2.199-6.6-5.6-6.6C117.3,17.2,116,17.9,116,19.5z"/>
<path fill="#30B459" d="M135.8,30c0.101,0.4,1.9,0.7,2.2,0.7c0.2,0,0.2,0.899,0.1,1.1c-1.5-0.1-2.6-0.2-4-0.2
	c-1.5,0-2.5,0.101-4,0.2c-0.199-0.2-0.199-1.1,0-1.1c0.4,0,2.2-0.3,2.301-0.7c0.199-0.9,0.3-2.1,0.3-2.6v-7c0-0.3,0-1.5-0.5-2
	c-0.8-1-2.2-0.6-2.2-0.9c0,0,0-0.9,0.2-0.9c1.7-0.3,3.7-0.6,5.1-1c0,0,0.101,0,0.2,0c0.2,0,0.2,0.6,0.2,0.8
	c-0.101,1.2-0.2,1.4-0.2,2.7v7.6C135.5,27.9,135.5,29,135.8,30z M133.8,7.8c1,0,1.9,0.8,1.9,1.9c0,1.1-0.8,1.9-1.9,1.9
	c-1.1,0-1.899-0.8-1.899-1.9C131.9,8.6,132.7,7.8,133.8,7.8z"/>
<path fill="#30B459" d="M155.4,23.3v3.4c0,1.2,0,2.3,0.3,3.3c0.1,0.4,1.899,0.7,2.2,0.7c0.199,0,0.199,0.899,0.1,1.1
	c-1.5-0.1-2.6-0.2-4-0.2c-1.5,0-2.4,0.101-3.9,0.2c-0.199-0.2-0.199-1.1,0-1.1c0.4,0,2-0.3,2.101-0.7c0.2-0.9,0.3-2.1,0.3-2.6v-3.7
	c0-4.8-1.3-6-3.8-6c-1.7,0-3.4,1.6-3.4,2.4v6.5c0,1.2,0,2.301,0.3,3.301c0.101,0.399,1.9,0.699,2.2,0.699c0.2,0,0.2,0.9,0.101,1.101
	c-1.5-0.101-2.601-0.2-4-0.2c-1.5,0-2.5,0.1-4,0.2c-0.2-0.2-0.2-1.101,0-1.101c0.399,0,2.199-0.3,2.3-0.699
	c0.2-0.9,0.3-2.101,0.3-2.601v-7c0-0.3,0-1.5-0.5-2c-0.8-1-2.2-0.6-2.2-0.9c0,0,0-0.9,0.2-0.9c1.7-0.3,3.7-0.6,5.1-1
	c0,0,0.101,0,0.2,0c0.2,0,0.2,0.6,0.2,0.8c-0.1,0.8-0.1,1.2-0.1,1.5c0,0,0,0.1,0.1,0.1c0,0,0.1,0,0.1-0.1
	c0.9-0.9,3.101-2.5,5.101-2.5C154.2,15.4,155.4,17.9,155.4,23.3z"/>
<path fill="#30B459" d="M173,16.6h2.2c0.1,0,0.2,0.6,0.2,0.9S175.3,18,175.2,18H172.6c-0.1,0-0.1,0-0.1,0.1c0,0.3,0.8,1.2,0.8,2.7
	c0,2.601-2.6,5.2-6.2,5.2c-1,0-1.6-0.1-2.1-0.1c-0.6,0.3-1.6,1.399-1.6,2.1c0,1.5,2,1.5,3.699,1.5c6.4,0.1,8.301,1.3,8.301,3.6
	c0,3.7-3.5,7-8.601,7c-3,0-6.8-1.1-6.8-4.1c0-2.1,2.6-3.5,3.6-3.9C162.4,31.9,160.9,30.9,160.9,29.3c0-1.399,1.6-3,2.699-3.7
	c-1.399-0.5-3-2.399-3-4.7c0-2.9,2.801-5.2,6.301-5.2C169.7,15.6,170.3,16.6,173,16.6z M165.4,32.2c-0.101,0-0.101,0-0.2,0.1
	c-1.101,0.601-2.601,1.2-2.601,2.9c0,2.2,2.801,3.6,5.301,3.6c3.1,0,5.1-2,5.1-3.899C173,32.8,171.5,32.2,165.4,32.2z M167,24.8
	c2,0,3.3-1.7,3.3-3.8c0-2.3-1.7-4.1-3.5-4.1c-2,0-3.3,1.7-3.3,3.8C163.5,23,165.1,24.8,167,24.8z"/>
<path fill="#30B459" d="M194,23.7c0,4.5-3.5,8.3-8,8.3s-8.1-3.7-8.1-8.3c0-4.6,3.5-8.2,8.1-8.2C190.4,15.5,194,19.2,194,23.7z
	 M181,23.1c0,4.101,2.5,7.4,5.3,7.4c2.7,0,4.5-3,4.5-6.3c0-4.1-2.5-7.3-5.3-7.3C182.8,16.9,181,19.8,181,23.1z"/>
<path fill="#30B459" d="M13.3,34c0.1,0,0.2,0,0.3,0.1c0.1,0.101,0.2,0.101,0.3,0.301C14,34.6,14,34.7,14,34.8v8.5
	c0,0.101,0,0.3-0.1,0.4c-0.1,0.1-0.2,0.2-0.3,0.3c-0.1,0-0.2,0.1-0.3,0.1c-0.2,0-0.4-0.1-0.5-0.199L10,41l-2.8,2.8
	C7.1,43.9,6.9,44,6.7,44c-0.1,0-0.2,0-0.3-0.1C6.3,43.8,6.1,43.8,6.1,43.6C6,43.5,6,43.4,6,43.3v-8.5c0-0.2,0-0.3,0.1-0.399
	C6.2,34.3,6.3,34.2,6.4,34.1C6.5,34,6.6,34,6.7,34H13.3"/>
<rect x="16" y="36" fill="#30B459" width="12" height="2"/>
<path fill="#30B459" d="M4,0C1.8,0,0,1.8,0,4v30c0,2.2,1.8,4,4,4v-2c-1.1,0-2-0.9-2-2s0.9-2,2-2h24V0H4z M20.8,2v4h-3.2V2H20.8z
	 M12.4,12V8h3.2v4H12.4z M15.6,14v4h-3.2v-4H15.6z M10.4,12H7.2V8h3.2V12z M10.4,14v4H7.2v-4H10.4z M10.4,20v4H7.2v-4H10.4z
	 M12.4,20h3.2v4h-3.2V20z M17.6,20h3.2v4h-3.2V20z M17.6,18v-4h3.2v4H17.6z M17.6,12V8h3.2v4H17.6z M15.6,2v4h-3.2V2H15.6z M10.4,2
	v4H7.2V2H10.4z M2,4c0-1.1,0.9-2,2-2h1.2v4H4C3.3,6,2.6,6.2,2,6.6V4z M2,10c0-1.1,0.9-2,2-2h1.2v4H4c-0.7,0-1.4,0.2-2,0.6V10z M2,16
	c0-1.1,0.9-2,2-2h1.2v4H4c-0.7,0-1.4,0.2-2,0.6V16z M2,22c0-1.1,0.9-2,2-2h1.2v4H4c-0.7,0-1.4,0.2-2,0.6V22z M4,30
	c-0.7,0-1.4,0.2-2,0.6V28c0-1.1,0.9-2,2-2h1.2v4H4z M7.2,30v-4h3.2v4H7.2z M12.4,30v-4h3.2v4H12.4z M17.6,30v-4h3.2v4H17.6z M26,30
	h-3.2v-4H26V30z M26,24h-3.2v-4H26V24z M26,18h-3.2v-4H26V18z M26,12h-3.2V8H26V12z M26,6h-3.2V2H26V6z"/>
</svg>
